<svg id="Layer_1" data-name="Layer 1" xmlns="http://www.w3.org/2000/svg" viewBox="0 0 143.55 31.22"><defs><style>.cls-1{fill:#33d6a3;}.cls-2{fill:#3c3c3b;}</style></defs><title>normal</title><path class="cls-1" d="M4.88,27.85l2.26-4.68c2,1.81,4.55,3.16,6.64,3.16a3.3,3.3,0,0,0,3.41-3.65c0-5.5-12-3.82-12-14.24,0-4,2.12-7.28,6.49-8.16H-.37V31H11A14.49,14.49,0,0,1,4.88,27.85Z" transform="translate(0.37 -0.03)"/><path class="cls-2" d="M38.65.28V12.71H28.35V.28H16.53A13.8,13.8,0,0,1,22.44,3.4L20.23,8.11C18.26,6.31,16,5,14,5a3,3,0,0,0-3.12,3.12c0,5.53,12,4.3,12,14.07,0,4.93-2.41,7.91-6.68,8.74H28.35V17.39h10.3V31h5.58V.28Z" transform="translate(0.37 -0.03)"/><path class="cls-2" d="M72.16,15.62c0,8.91-4.31,15.59-12.19,15.59S47.86,24.53,47.86,15.62,52.13,0,60,0,72.16,6.72,72.16,15.62Zm-18.72,0c0,5.62,2.22,10.55,6.53,10.55s6.56-4.93,6.56-10.55S64.32,5.12,60,5.12,53.44,10,53.44,15.62Z" transform="translate(0.37 -0.03)"/><path class="cls-2" d="M87,.28c4.31,0,7.92,3.44,7.92,9.56a9.06,9.06,0,0,1-5.17,8.65L96.34,31l-6.2.24L84.27,19h-3V31H75.66V.28ZM81.24,5.12v9.23h5c1.69,0,3.08-2.38,3.08-4.51,0-3-1.48-4.72-3.16-4.72Z" transform="translate(0.37 -0.03)"/><path class="cls-2" d="M116.39,5.12h-7V31h-5.58V5.12H96.9V.28h19.49Z" transform="translate(0.37 -0.03)"/><path class="cls-2" d="M116.28,25.42a2.77,2.77,0,0,0-2.54,2.95,2.57,2.57,0,1,0,5.1,0A2.78,2.78,0,0,0,116.28,25.42Z" transform="translate(0.37 -0.03)"/><path class="cls-2" d="M124.11,12.26a2.74,2.74,0,0,0,2.6-2.85,2.59,2.59,0,1,0-5.14,0A2.71,2.71,0,0,0,124.11,12.26Z" transform="translate(0.37 -0.03)"/><rect class="cls-2" x="122.26" y="14.17" width="4.48" height="16.76"/><path class="cls-2" d="M136.07,14.12c-4.41,0-7.14,3.28-7.14,8.58s2.8,8.55,7.14,8.55,7.11-3.36,7.11-8.55S140.45,14.12,136.07,14.12Zm0,13.21c-1.59,0-2.67-1.86-2.67-4.63S134.48,18,136.07,18s2.63,1.88,2.63,4.67S137.64,27.33,136.07,27.33Z" transform="translate(0.37 -0.03)"/></svg>